<svg width="44" height="44" viewBox="0 0 44 44" fill="none" xmlns="http://www.w3.org/2000/svg">
<rect x="2" y="2" width="40" height="40" rx="4" stroke="#C6C6C6" stroke-width="3"/>
<path fill-rule="evenodd" clip-rule="evenodd" d="M22 11C23.1046 11 24 11.8208 24 12.8333L24 31.1667C24 32.1792 23.1046 33 22 33C20.8954 33 20 32.1792 20 31.1667L20 12.8333C20 11.8208 20.8954 11 22 11Z" fill="#C6C6C6"/>
<path fill-rule="evenodd" clip-rule="evenodd" d="M33 22C33 23.1046 32.1792 24 31.1667 24L12.8333 24C11.8208 24 11 23.1046 11 22C11 20.8954 11.8208 20 12.8333 20L31.1667 20C32.1792 20 33 20.8954 33 22Z" fill="#C6C6C6"/>
</svg>
